<svg xmlns="http://www.w3.org/2000/svg" width="24" height="24" viewBox="0 0 24 24" fill="none"><path opacity="0.4" d="M15.535 8.46418C20.2213 13.1505 22.4374 18.5324 20.4848 20.485C18.5321 22.4376 13.1502 20.2215 8.46394 15.5353C3.77765 10.849 1.56157 5.46706 3.51419 3.51444C5.46681 1.56181 10.8487 3.77789 15.535 8.46418Z" stroke="#1D63ED" stroke-width="2" stroke-linecap="round" stroke-linejoin="round"></path><path d="M12.0005 12H12.0105M15.536 15.5355C10.8497 20.2218 5.46779 22.4379 3.51517 20.4852C1.56255 18.5326 3.77863 13.1507 8.46492 8.46443C13.1512 3.77814 18.5331 1.56206 20.4857 3.51468C22.4384 5.4673 20.2223 10.8492 15.536 15.5355ZM12.5005 12C12.5005 12.2761 12.2766 12.5 12.0005 12.5C11.7243 12.5 11.5005 12.2761 11.5005 12C11.5005 11.7238 11.7243 11.5 12.0005 11.5C12.2766 11.5 12.5005 11.7238 12.5005 12Z" stroke="#1D63ED" stroke-width="2" stroke-linecap="round" stroke-linejoin="round"></path></svg>